<?xml version="1.0" encoding="UTF-8" standalone="no"?>
<svg
   xmlns:dc="http://purl.org/dc/elements/1.1/"
   xmlns:cc="http://creativecommons.org/ns#"
   xmlns:rdf="http://www.w3.org/1999/02/22-rdf-syntax-ns#"
   xmlns:svg="http://www.w3.org/2000/svg"
   xmlns="http://www.w3.org/2000/svg"
   xmlns:sodipodi="http://sodipodi.sourceforge.net/DTD/sodipodi-0.dtd"
   xmlns:inkscape="http://www.inkscape.org/namespaces/inkscape"
   version="1.1"
   x="0"
   y="0"
   width="1185.907"
   height="882.045"
   viewBox="0, 0, 1185.907, 882.045"
   id="svg68"
   sodipodi:docname="college-library.svg"
   inkscape:version="0.92.1 r15371">
  <metadata
     id="metadata74">
    <rdf:RDF>
      <cc:Work
         rdf:about="">
        <dc:format>image/svg+xml</dc:format>
        <dc:type
           rdf:resource="http://purl.org/dc/dcmitype/StillImage" />
      </cc:Work>
    </rdf:RDF>
  </metadata>
  <defs
     id="defs72" />
  <sodipodi:namedview
     pagecolor="#ffffff"
     bordercolor="#666666"
     borderopacity="1"
     objecttolerance="10"
     gridtolerance="10"
     guidetolerance="10"
     inkscape:pageopacity="0"
     inkscape:pageshadow="2"
     inkscape:window-width="1920"
     inkscape:window-height="1016"
     id="namedview70"
     showgrid="false"
     inkscape:zoom="0.52617955"
     inkscape:cx="600.55546"
     inkscape:cy="441.02249"
     inkscape:window-x="0"
     inkscape:window-y="27"
     inkscape:window-maximized="1"
     inkscape:current-layer="svg68" />
  <path
     style="fill:#000000"
     inkscape:connector-curvature="0"
     id="path89797"
     d="m 309.164,875.677 -2.939,-6.367 -0.32,-27.116 c -0.291,-24.612 -0.166,-27.176 1.353,-27.759 0.92,-0.353 11.189,-0.931 22.82,-1.285 13.512,-0.411 21.43,-1.04 21.931,-1.742 1.034,-1.449 -0.048,-37.985 -1.413,-47.695 l -1.068,-7.597 -21.651,-0.73 c -11.909,-0.401 -32.227,-1.125 -45.152,-1.61 -41.511,-1.555 -93.233,-3.023 -143.5,-4.074 -88.135,-1.843 -105.982,-2.381 -107.305,-3.235 -1.043,-0.674 -1.183,-5.981 -0.699,-26.5 0.333,-14.112 0.794,-36.232 1.023,-49.157 0.846,-47.653 2.499,-120.397 3.443,-151.5 2.837,-93.544 3.064,-110.74 2.43,-184 -0.367,-42.35 -0.328,-101.079 0.087,-130.508 l 0.753,-53.507 2.634,-3.138 2.634,-3.138 32.5,-0.341 c 17.875,-0.187 78.4,-0.221 134.5,-0.075 101.05,0.262 117.386,-0.076 162,-3.35 12.1,-0.889 26.275,-1.914 31.5,-2.279 l 9.5,-0.664 -0.325,-11 c -0.403,-13.627 1.154,-27.553 3.533,-31.595 0.985,-1.675 4.717,-4.97 8.292,-7.322 6.524,-4.293 42.616,-22.583 44.563,-22.583 0.572,0 3.716,-1.731 6.988,-3.846 3.272,-2.116 8.199,-5.089 10.949,-6.607 2.75,-1.519 7.475,-4.226 10.5,-6.018 8.108,-4.801 29.639,-16.529 30.345,-16.529 0.57,0 18.745,-10.729 23.155,-13.669 1.1,-0.733 5.825,-3.866 10.5,-6.962 4.675,-3.096 10.323,-7.103 12.552,-8.904 L 579.329,0 l 5.448,1.402 c 10.209,2.628 17.067,5.592 46.39,20.053 9.319,4.595 17.55,8.355 18.293,8.355 0.742,0 1.893,0.458 2.557,1.017 1.992,1.678 24.9,12.578 29.208,13.897 2.2,0.674 4.9,1.624 6,2.111 6.11,2.705 14.785,6.011 20.5,7.813 8.237,2.596 19.488,6.76 22.996,8.51 1.486,0.741 5.719,2.164 9.405,3.162 4.474,1.211 7.101,2.509 7.901,3.902 0.872,1.519 1.198,12.204 1.198,39.249 v 37.161 l 13.5,0.737 c 8.281,0.452 23.357,0.226 39,-0.586 17.917,-0.929 46.02,-1.211 94.5,-0.946 126.2,0.689 162.676,0.435 240.624,-1.675 18.17,-0.491 24.985,-0.36 26,0.502 0.757,0.642 2.673,2.142 4.259,3.334 l 2.883,2.166 -0.644,29.073 c -1.806,81.661 -1.941,103.483 -0.65,105.039 0.936,1.128 0.96,1.534 0.091,1.534 -0.65,0 -0.902,0.453 -0.559,1.006 0.886,1.434 0.795,13.279 -0.436,56.494 -0.595,20.9 -1.539,60.275 -2.099,87.5 -1.26,61.31 -1.588,73.771 -3.079,117 -0.654,18.975 -1.3,73.662 -1.435,121.528 l -0.247,87.027 -4.354,4.363 -4.354,4.363 -34,-0.603 c -41.536,-0.735 -94.792,-2.399 -119,-3.716 -23.519,-1.28 -80.645,-2.863 -121.5,-3.367 -17.875,-0.22 -37,-0.887 -42.5,-1.482 -13.998,-1.515 -40.507,-2.522 -44.861,-1.705 l -3.639,0.682 0.009,22.705 c 0.005,12.488 0.279,24.955 0.609,27.705 l 0.6,5 20.811,-0.289 20.811,-0.288 2.496,3.288 c 5.242,6.906 6.809,20.603 4.611,40.313 -0.968,8.682 -0.887,9.822 1,14.088 2.098,4.744 2.599,9.018 1.288,10.996 -1.947,2.936 -71.661,3.908 -116.735,1.626 -19.534,-0.988 -31.449,-1.014 -54.5,-0.119 -18.785,0.73 -42.938,0.88 -66.5,0.412 -99.51,-1.973 -224.906,-1.481 -276.56,1.084 l -12.561,0.624 -2.939,-6.368 z" />
  <path
     style="fill:#999999"
     inkscape:connector-curvature="0"
     id="path89795"
     d="m 580.225,868.314 c 107.8,-0.135 207.25,-0.642 221,-1.125 l 25,-0.879 0.778,-21.889 c 0.427,-12.039 0.502,-22.164 0.166,-22.5 -0.861,-0.861 -136.466,-0.225 -193.444,0.907 -61.523,1.222 -140.46,1.209 -179,-0.03 -49.771,-1.6 -87.687,-1.701 -89.15,-0.238 -0.931,0.931 -7.443,1.25 -25.55,1.25 h -24.3 v 5.354 5.355 l 10.25,0.657 c 24.572,1.575 72.015,1.886 101.307,0.664 16.793,-0.701 30.82,-0.986 31.171,-0.635 0.351,0.351 0.085,1.193 -0.591,1.871 -1.421,1.426 -12.354,2.055 -64.637,3.718 -19.8,0.631 -45,1.454 -56,1.831 l -20,0.685 -0.299,5.167 c -0.346,5.967 -0.357,5.96 11.218,7.758 7.502,1.165 47.842,0.386 73.581,-1.422 15.772,-1.107 50.189,-1.198 59,-0.154 4.601,0.544 5.55,0.999 5.804,2.782 l 0.304,2.131 -43.804,0.616 c -24.092,0.339 -51.679,1.061 -61.304,1.606 -9.625,0.544 -23.35,1.247 -30.5,1.561 -7.15,0.315 -13.382,0.95 -13.849,1.413 -0.468,0.462 -0.572,1.715 -0.233,2.785 0.599,1.887 1.597,1.931 33.85,1.476 18.277,-0.257 121.432,-0.579 229.232,-0.715 z" />
  <path
     style="fill:#999999"
     inkscape:connector-curvature="0"
     id="path89793"
     d="m 587.725,812.851 c 18.425,-0.594 66.8,-1.726 107.5,-2.517 40.7,-0.79 75.63,-1.724 77.622,-2.075 3.503,-0.617 3.642,-0.807 4.241,-5.794 0.341,-2.835 0.623,-14.493 0.628,-25.905 0.01,-23.593 0.372,-22.788 -8.27,-18.413 -3.791,1.92 -4.85,2.105 -5.919,1.036 -0.958,-0.957 -6.724,-1.402 -21.802,-1.681 -34.054,-0.632 -78.943,-2.637 -88.5,-3.953 -11.77,-1.621 -36.657,-1.567 -81,0.175 -44.668,1.754 -53.808,1.805 -121.573,0.677 -42.971,-0.715 -58.565,-0.624 -73.357,0.43 l -18.784,1.339 0.419,5.799 c 0.231,3.189 0.766,6.146 1.19,6.57 0.863,0.864 59.132,1.038 90.605,0.271 11.275,-0.275 24.55,-0.085 29.5,0.423 l 9,0.924 -5,0.845 c -2.75,0.465 -11.525,1.023 -19.5,1.241 -7.975,0.217 -23.725,0.859 -35,1.427 -11.275,0.568 -31.413,1.353 -44.75,1.744 l -24.25,0.711 v 2.9 c 0,1.594 0.519,4.961 1.153,7.48 l 1.154,4.581 15.096,-0.6 c 8.304,-0.331 23.647,-1.073 34.097,-1.65 10.45,-0.577 29.35,-1.478 42,-2.002 12.65,-0.524 29.862,-1.264 38.25,-1.644 13.508,-0.614 15.25,-0.513 15.25,0.883 0,2.322 -7.868,4.446 -19.5,5.264 -5.5,0.387 -25.975,1.077 -45.5,1.533 -38.544,0.901 -69.03,2.894 -75.75,4.954 l -4.25,1.302 v 5.783 c 0,3.538 0.484,6.082 1.246,6.553 5.005,3.093 144.042,3.956 223.754,1.389 z" />
  <path
     style="fill:#ffcb65"
     inkscape:connector-curvature="0"
     id="path89791"
     d="m 1145.527,750.298 c 2.916,-0.142 5.459,-0.423 5.653,-0.623 0.193,-0.201 0.507,-3.508 0.698,-7.348 l 0.347,-6.983 -4,-0.736 c -2.2,-0.405 -10.525,-1.418 -18.5,-2.251 -7.975,-0.833 -18.1,-1.964 -22.5,-2.515 -4.4,-0.55 -11.531,-1.303 -15.848,-1.672 -16.272,-1.393 -4.172,-2.549 28.289,-2.704 l 32.784,-0.156 -0.378,-12.5 -0.378,-12.5 -3.235,-0.79 c -1.779,-0.435 -10.659,-1.262 -19.734,-1.838 -9.075,-0.576 -17.85,-1.217 -19.5,-1.425 -1.65,-0.208 -5.925,-0.663 -9.5,-1.012 -6.119,-0.597 -9.062,-1.707 -7.82,-2.949 0.301,-0.301 11.521,-0.973 24.934,-1.494 13.412,-0.52 26.713,-1.229 29.558,-1.575 l 5.172,-0.628 0.328,-7.024 c 0.26,-5.573 0.018,-7.12 -1.172,-7.486 -0.825,-0.253 -2.4,-0.835 -3.5,-1.292 -2.664,-1.108 -7.526,-2.356 -10,-2.567 -1.1,-0.094 -6.95,-0.868 -13,-1.719 -6.05,-0.852 -15.837,-2.118 -21.749,-2.815 -10.85,-1.279 -13.837,-2.134 -12.417,-3.554 0.428,-0.427 11.085,-0.954 23.683,-1.172 19.182,-0.33 24.041,-0.116 29.888,1.316 3.84,0.941 7.457,1.418 8.038,1.059 0.606,-0.374 1.057,-4.212 1.057,-8.983 v -8.33 l -3.75,-0.784 c -2.063,-0.431 -3.975,-0.84 -4.25,-0.91 -0.275,-0.069 -2.75,-0.455 -5.5,-0.858 -2.75,-0.402 -7.025,-1.134 -9.5,-1.625 -2.475,-0.492 -7.425,-1.399 -11,-2.016 -16.608,-2.865 -26.542,-5.379 -28.5,-7.211 -1.045,-0.978 11.634,-0.476 30,1.187 5.5,0.498 14.897,1.035 20.882,1.193 l 10.883,0.287 0.443,-12.61 0.444,-12.61 -7.826,-1.231 c -4.304,-0.677 -8.951,-1.412 -10.326,-1.633 -1.375,-0.221 -5.313,-0.692 -8.75,-1.046 -3.438,-0.355 -6.25,-0.917 -6.249,-1.25 10e-4,-0.333 -2.362,-0.57 -5.25,-0.526 -2.888,0.043 -9.971,-0.182 -15.741,-0.5 -9.232,-0.51 -10.533,-0.806 -10.85,-2.466 -0.328,-1.722 0.107,-1.829 4.99,-1.227 2.943,0.363 14.35,0.902 25.35,1.197 23.579,0.633 33.053,-0.639 32.928,-4.421 -0.038,-1.189 -0.151,-5.023 -0.25,-8.52 l -0.178,-6.358 -8.25,-1.744 c -13.6,-2.876 -19.117,-3.687 -21.732,-3.196 -1.365,0.257 -3.615,-0.11 -5,-0.815 -1.403,-0.715 -7.519,-1.482 -13.809,-1.733 -8.619,-0.343 -11.673,-0.831 -12.906,-2.065 -1.487,-1.487 -1.412,-1.666 0.951,-2.259 1.411,-0.354 10.368,-0.369 19.906,-0.034 29.312,1.031 36.241,1.09 38.948,0.328 2.496,-0.701 2.631,-1.108 3.15,-9.427 0.299,-4.782 0.332,-9.243 0.075,-9.913 -0.28,-0.729 -4.555,-1.696 -10.65,-2.408 -23.266,-2.721 -33.508,-4.211 -39.183,-5.703 -3.3,-0.867 -6.563,-1.593 -7.25,-1.613 -0.688,-0.019 -1.25,-0.413 -1.25,-0.875 0,-0.461 3.937,-0.499 8.75,-0.083 13.948,1.205 35.097,0.883 43,-0.655 l 7.25,-1.41 v -9.268 -9.267 l -5.25,-0.545 c -2.888,-0.3 -10.2,-0.821 -16.25,-1.157 -6.05,-0.337 -14.375,-1.063 -18.5,-1.615 -4.125,-0.551 -11.325,-1.301 -16,-1.665 -6.5,-0.506 -8.5,-1.007 -8.5,-2.128 0,-2.651 20.105,-4.27 41.5,-3.343 10.175,0.441 19.588,0.804 20.917,0.805 2.367,0.003 2.42,-0.181 2.5,-8.748 l 0.082,-8.752 -3.373,-0.632 c -1.855,-0.348 -7.03,-0.363 -11.5,-0.032 -4.47,0.331 -41.201,0.758 -81.627,0.95 -40.425,0.193 -75.074,0.626 -76.999,0.963 -12.42,2.178 -29.544,2.914 -85.488,3.672 -34.643,0.469 -63.893,0.516 -65,0.105 -2.089,-0.777 -37.352,0.366 -48.195,1.562 l -6.182,0.681 -0.508,9.118 c -0.279,5.014 -0.944,50.517 -1.477,101.117 -0.534,50.6 -1.264,101.9 -1.622,114 l -0.65,22 71.311,0.176 c 39.221,0.098 91.786,0.666 116.811,1.264 25.025,0.598 66.593,1.511 92.374,2.031 25.781,0.519 47.156,1.243 47.5,1.609 0.518,0.552 24.783,-0.013 46.927,-1.092 z" />
  <path
     style="fill:#000000"
     inkscape:connector-curvature="0"
     id="path89789"
     d="m 1017.225,700.285 c -24.825,-1.542 -29.051,-2.051 -38.767,-4.67 -8.772,-2.364 -7.96,-1.054 -9.796,-15.805 -1.101,-8.85 -0.752,-62.332 0.48,-73.5 0.242,-2.2 0.95,-13 1.571,-24 0.622,-11 1.442,-24.707 1.821,-30.459 l 0.691,-10.459 4.5,-1.381 c 3.338,-1.024 14.18,-1.513 42,-1.893 l 37.5,-0.511 3.078,3.351 c 3.951,4.302 4.729,7.264 2.45,9.326 -1.06,0.96 -2.031,3.851 -2.454,7.307 -0.384,3.145 -0.953,7.856 -1.264,10.469 -0.31,2.612 -0.845,4.75 -1.187,4.75 -0.343,0 -0.637,1.462 -0.654,3.25 -0.033,3.372 -1.649,26.572 -3.613,51.85 -0.67,8.622 -0.938,26.172 -0.655,42.867 l 0.48,28.268 -3.308,1.382 c -3.763,1.572 -5.405,1.565 -32.873,-0.142 z" />
  <path
     style="fill:#ccccfe"
     inkscape:connector-curvature="0"
     id="path89787"
     d="m 1042.07,673.56 c 1.723,-37.689 3.206,-63.45 5.194,-90.25 1.461,-19.69 2.08,-32.069 1.645,-32.887 -0.573,-1.079 -57.213,-0.051 -62.156,1.129 l -3.472,0.828 -1.168,10.541 c -2.065,18.631 -2.426,117.699 -0.441,120.837 1.017,1.608 16.038,2.59 44.172,2.887 l 15.62,0.165 z" />
  <path
     style="fill:#000000"
     inkscape:connector-curvature="0"
     id="path89785"
     d="m 992.471,673.283 c -4.325,-4.325 -4.388,-12.256 -0.273,-34.755 0.883,-4.83 1.374,-9.158 1.09,-9.617 -0.284,-0.459 0.316,-1.587 1.333,-2.508 1.745,-1.578 1.886,-1.543 2.493,0.617 0.354,1.259 0.929,10.661 1.279,20.892 l 0.635,18.602 16.099,0.653 c 17.737,0.72 21.598,1.274 21.598,3.099 0,2.667 -16.206,5.544 -31.229,5.544 -9.895,0 -10.644,-0.146 -13.025,-2.527 z" />
  <path
     style="fill:#000000"
     inkscape:connector-curvature="0"
     id="path89783"
     d="m 833.725,694.446 -8.5,-1.136 v -40.5 c 0,-22.275 0.66,-53.325 1.467,-69 0.807,-15.675 1.493,-31.834 1.524,-35.908 0.05,-6.573 0.279,-7.448 2.032,-7.754 4.586,-0.801 34.911,-2.274 60.127,-2.92 l 27.123,-0.694 1.709,2.607 c 1.959,2.99 1.966,4.319 0.41,71.169 -1.101,47.25 -2.22,66.945 -4.442,78.114 -0.513,2.582 -3.435,2.921 -46.45,5.393 -10.175,0.585 -20.3,1.221 -22.5,1.415 -2.2,0.193 -7.825,-0.16 -12.5,-0.786 z" />
  <path
     style="fill:#ccccfe"
     inkscape:connector-curvature="0"
     id="path89781"
     d="m 883.725,682.81 c 14.469,-1.293 20.983,-2.488 21.015,-3.859 0.008,-0.353 0.239,-6.041 0.513,-12.641 0.274,-6.6 0.681,-17.175 0.904,-23.5 0.222,-6.325 0.669,-17.575 0.992,-25 0.323,-7.425 0.8,-24.525 1.059,-38 0.26,-13.475 0.777,-26.253 1.149,-28.396 l 0.677,-3.895 -7.405,0.632 c -4.072,0.348 -20.294,0.932 -36.048,1.298 l -28.644,0.665 -0.663,14.598 c -0.834,18.357 -2.407,63.74 -3.217,92.804 -0.562,20.17 -0.457,22.454 1.146,24.9 l 1.764,2.693 18.129,-0.681 c 9.971,-0.374 22.854,-1.103 28.629,-1.618 z" />
  <path
     style="fill:#000000"
     inkscape:connector-curvature="0"
     id="path89779"
     d="m 845.431,668.024 c -4.313,-4.501 -5.941,-12.589 -5.378,-26.714 0.508,-12.733 2.382,-28.518 3.53,-29.724 0.379,-0.398 2.01,0.076 3.624,1.052 2.477,1.499 3.115,2.771 4.09,8.162 0.747,4.133 0.866,8.879 0.335,13.448 -0.45,3.884 -0.839,10.999 -0.863,15.812 l -0.044,8.75 h 15.951 c 17.585,0 29.049,1.944 29.049,4.927 0,0.849 -3.848,1.6 -15.5,3.026 -3.85,0.471 -10.375,1.367 -14.5,1.991 -16.16,2.444 -17.293,2.404 -20.294,-0.73 z" />
  <path
     style="fill:#cc9866"
     inkscape:connector-curvature="0"
     id="path89777"
     d="m 446.943,742.071 c 0.24,-2.057 0.093,-21.519 -0.327,-43.25 -1.317,-68.143 -1.095,-124.536 0.521,-132.26 1.574,-7.522 5.521,-18.744 9.178,-26.094 1.326,-2.663 2.41,-5.33 2.41,-5.927 0,-1.399 8.634,-18.408 11.109,-21.883 1.04,-1.461 1.891,-2.929 1.891,-3.262 0,-1.502 12.827,-16.052 22.671,-25.716 10.951,-10.75 29.325,-24.034 44.152,-31.921 6.277,-3.339 19.326,-7.986 27.177,-9.678 4.499,-0.969 23.156,-0.961 29,0.014 16.746,2.792 41.134,15.015 62.853,31.502 3.106,2.357 7.222,5.338 9.147,6.625 3.395,2.268 12.797,12.013 18.11,18.77 3.235,4.114 4.794,7.166 8.826,17.283 1.747,4.381 3.594,8.47 4.107,9.087 0.512,0.617 1.374,11.883 1.916,25.035 0.542,13.153 1.255,28.639 1.585,34.414 1.155,20.252 1.393,26.828 2.444,67.5 0.583,22.55 1.457,46.625 1.941,53.5 0.485,6.875 0.924,18.237 0.976,25.25 l 0.095,12.75 8.25,0.118 c 4.537,0.064 9.6,0.247 11.25,0.405 1.65,0.159 9.529,0.618 17.509,1.021 l 14.51,0.731 3.087,-2.597 c 3.049,-2.566 3.096,-2.751 3.93,-15.388 0.464,-7.035 0.799,-18.19 0.744,-24.79 -2.043,-247.416 -2.33,-268.884 -3.609,-270.163 -0.354,-0.354 -7.962,-0.144 -16.907,0.466 -16.446,1.121 -46.732,0.37 -69.764,-1.732 -5.775,-0.527 -11.175,-1.007 -12,-1.066 -9.921,-0.712 -99.218,-0.903 -124,-0.264 -17.875,0.46 -34.75,0.474 -37.5,0.031 -2.75,-0.444 -24.478,-0.912 -48.284,-1.04 -36.273,-0.195 -43.425,-0.005 -44.155,1.173 -0.479,0.772 -1.096,26.872 -1.372,58 -0.276,31.127 -0.98,66.945 -1.566,79.595 -0.585,12.65 -1.302,30.65 -1.593,40 -0.291,9.35 -0.982,29.375 -1.536,44.5 -1.738,47.49 -2.355,89.659 -1.321,90.298 0.527,0.325 9.254,0.897 19.393,1.27 10.139,0.372 18.621,0.847 18.851,1.055 0.229,0.207 1.642,0.377 3.14,0.377 2.402,0 2.776,-0.443 3.161,-3.739 z" />
  <path
     style="fill:#cccccc"
     inkscape:connector-curvature="0"
     id="path89775"
     d="m 501.725,744.011 c 4.125,-0.258 49.8,-0.658 101.5,-0.889 51.7,-0.232 94.336,-0.755 94.746,-1.163 0.41,-0.408 -0.152,-2.503 -1.25,-4.657 -1.633,-3.204 -1.996,-5.897 -1.996,-14.823 v -10.908 l -10.25,0.658 c -53.694,3.45 -81.914,3.439 -100.5,-0.037 -8.564,-1.601 8.827,-5.281 30.546,-6.462 9.737,-0.53 28.729,-1.406 42.204,-1.946 13.475,-0.54 27.312,-1.245 30.75,-1.567 l 6.25,-0.585 v -8.803 c 0,-8.591 -0.061,-8.818 -2.538,-9.44 -1.396,-0.35 -14.784,-0.117 -29.75,0.519 -36.51,1.551 -62.591,0.816 -68.712,-1.935 l -4.5,-2.022 8.202,-0.071 c 4.511,-0.039 15.761,-0.758 25,-1.6 9.239,-0.841 22.648,-1.958 29.798,-2.483 7.15,-0.524 14.8,-1.191 17,-1.481 2.2,-0.291 8.612,-1.04 14.25,-1.665 l 10.25,-1.137 v -12.911 c 0,-9.487 -0.306,-12.723 -1.152,-12.2 -4.298,2.657 -87.667,4.988 -90.134,2.521 -0.539,-0.539 -0.727,-1.638 -0.418,-2.443 0.66,-1.72 4.719,-2.324 24.704,-3.674 29.388,-1.985 53.067,-4.235 58.199,-5.53 2.136,-0.539 3.199,-0.141 5.099,1.91 1.321,1.424 2.694,2.297 3.052,1.94 0.833,-0.834 0.825,-14.622 -0.011,-19.687 l -0.64,-3.87 -23.099,0.329 c -21.182,0.301 -39.967,-0.356 -48.48,-1.697 -2.444,-0.384 -3.078,-0.834 -2.288,-1.624 0.68,-0.68 10.249,-1.404 25.38,-1.92 13.358,-0.455 26.763,-1.234 29.788,-1.73 7.42,-1.217 17.089,-3.947 18.693,-5.278 0.929,-0.772 1.307,-4.22 1.307,-11.928 0,-9.637 -0.212,-10.955 -1.904,-11.861 -1.955,-1.046 -15.417,-0.861 -35.667,0.491 -12.342,0.823 -20.429,0.044 -20.429,-1.968 0,-1.518 6.349,-2.574 15.473,-2.574 6.093,0 8.065,-0.273 26.027,-3.599 4.95,-0.916 10.662,-1.876 12.693,-2.133 l 3.692,-0.467 0.308,-11.846 0.307,-11.845 -19.048,-0.305 c -16.822,-0.27 -19.392,-0.531 -21.99,-2.236 l -2.943,-1.931 2.99,-0.817 c 1.645,-0.45 8.616,-1.268 15.491,-1.819 6.875,-0.551 14.975,-1.34 18,-1.752 l 5.5,-0.75 -0.17,-3.757 c -0.094,-2.067 -0.911,-5.698 -1.817,-8.071 l -1.647,-4.313 -12.072,-1.136 c -10.155,-0.955 -12.446,-1.487 -14.433,-3.354 -4.313,-4.052 -3.213,-4.869 6.557,-4.869 10.831,0 12.082,-0.412 12.082,-3.98 0,-2.138 -1.652,-4.327 -7.279,-9.643 -4.003,-3.783 -9.291,-8.226 -11.75,-9.875 -2.459,-1.648 -4.696,-3.268 -4.971,-3.6 -0.275,-0.332 -2.49,-1.85 -4.922,-3.374 -2.432,-1.523 -4.907,-3.179 -5.5,-3.679 -4.411,-3.719 -12.176,-8.794 -15.77,-10.307 -2.369,-0.998 -5.658,-2.391 -7.308,-3.096 -25.281,-10.806 -34.906,-13.447 -48.98,-13.443 -9.249,0.003 -11.546,0.325 -14.294,2 -1.801,1.098 -3.883,1.997 -4.628,1.997 -0.744,0 -1.853,0.602 -2.464,1.338 -0.611,0.736 -2.987,1.9 -5.282,2.588 -4.723,1.415 -8.557,3.873 -14.352,9.202 -2.2,2.023 -5.575,4.511 -7.5,5.528 -8.744,4.623 -18.395,12.141 -26.593,20.715 -11.346,11.867 -17.259,20.25 -24.428,34.629 -5.523,11.078 -15.738,35.373 -16.608,39.5 -1.445,6.858 -2.457,19.249 -3.512,43 -1.508,33.948 0.096,90.897 3.59,127.5 0.131,1.375 0.309,3.357 0.395,4.406 0.15,1.832 0.864,1.874 18.406,1.084 10.037,-0.451 21.625,-1.032 25.75,-1.289 z" />
  <path
     style="fill:#000000"
     inkscape:connector-curvature="0"
     id="path89773"
     d="m 500.021,727.149 -4.103,-2.661 -0.632,-9.589 c -0.347,-5.274 -0.842,-15.889 -1.099,-23.589 -0.257,-7.7 -0.919,-19.625 -1.47,-26.5 -2.143,-26.722 -2.301,-50.573 -0.463,-70 0.962,-10.175 1.833,-19.625 1.935,-21 0.393,-5.302 1.854,-12.871 4.246,-22 1.37,-5.225 2.9,-11.2 3.401,-13.277 0.501,-2.077 3.187,-8.152 5.968,-13.5 8.516,-16.374 7.272,-14.703 24.921,-33.488 11.296,-12.023 23.264,-19.735 30.626,-19.735 3.221,0 4.374,0.395 4.374,1.5 0,0.839 -0.891,1.5 -2.022,1.5 -1.113,0 -3.976,1.8 -6.362,4 -2.387,2.2 -4.66,4 -5.051,4 -0.391,0 -3.804,2.362 -7.585,5.25 -3.78,2.887 -8.006,6.046 -9.391,7.019 -2.099,1.476 -11.589,14.78 -11.589,16.247 0,0.249 -1.304,2.598 -2.898,5.219 -1.593,2.62 -3.678,7.465 -4.632,10.765 -0.953,3.3 -2.782,9.375 -4.063,13.5 -2.048,6.594 -5.194,22.799 -5.243,27 -0.01,0.825 -0.497,6.225 -1.083,12 -4.259,41.956 -4.439,59.712 -1.046,103 0.538,6.875 0.979,16.325 0.978,21 -10e-4,4.675 0.438,11.185 0.976,14.467 0.639,3.902 0.637,6.307 -0.006,6.95 -0.541,0.54 -0.983,1.793 -0.983,2.783 0,2.576 -2.903,2.251 -7.704,-0.861 z" />
  <path
     style="fill:#ffcb65"
     inkscape:connector-curvature="0"
     id="path89771"
     d="m 382.377,743.236 13.152,-0.621 0.488,-3.652 c 0.268,-2.01 0.548,-37.137 0.622,-78.062 0.132,-72.9 1.384,-152.05 2.679,-169.262 l 0.652,-8.67 -4.372,-0.646 c -2.405,-0.356 -10.673,-0.432 -18.373,-0.169 -7.7,0.263 -38.975,0.919 -69.5,1.458 -30.953,0.547 -59.74,1.517 -65.086,2.192 -7.261,0.918 -12.519,0.944 -21.673,0.109 -16.761,-1.53 -122.439,-1.505 -123.973,0.029 -0.836,0.836 -3.567,0.849 -10.45,0.05 -5.125,-0.595 -16.293,-1.217 -24.818,-1.382 l -15.5,-0.3 -0.291,3.5 c -0.16,1.925 0.084,5.3 0.542,7.5 0.803,3.857 1.01,4.029 5.791,4.813 7.06,1.158 48.976,2.867 75.458,3.075 23.052,0.182 27,0.652 27,3.22 0,1.064 -1.041,1.428 -3.75,1.312 -2.063,-0.088 -9.825,0.407 -17.25,1.1 -8.873,0.829 -18.984,1.02 -29.5,0.56 -21.483,-0.942 -43.57,-0.721 -51.471,0.516 -3.559,0.557 -6.606,1.147 -6.77,1.311 -0.164,0.164 -0.537,3.289 -0.829,6.945 l -0.53,6.648 27.3,0.085 c 34.282,0.107 53.794,0.714 53.818,1.672 0.011,0.409 -3.027,1.015 -6.749,1.348 -3.723,0.333 -11.719,1.164 -17.769,1.846 -6.05,0.682 -12.575,1.371 -14.5,1.531 -22.615,1.885 -40.653,3.827 -41.299,4.447 -0.439,0.423 -1.239,16.474 -1.778,35.669 -0.539,19.196 -1.399,41.877 -1.912,50.402 -0.513,8.525 -1.184,26.975 -1.492,41 -0.307,14.025 -0.732,28.65 -0.944,32.5 l -0.384,7 H 76.07 c 22.817,0 43.522,0.529 53.655,1.372 22.675,1.887 22.88,2.404 1.902,4.805 -11.131,1.274 -23.327,1.633 -53.703,1.58 l -39.301,-0.068 0.301,4.655 0.301,4.656 20.5,0.225 c 34.186,0.376 75.652,4.284 77.519,7.306 0.254,0.41 -9.097,0.988 -20.779,1.285 -11.682,0.297 -27.54,1.23 -35.24,2.073 -12.765,1.398 -15.215,1.389 -27.77,-0.108 -8.461,-1.008 -14.109,-1.282 -14.649,-0.711 -0.482,0.511 -1.181,3.225 -1.553,6.031 l -0.675,5.101 16.824,0.646 c 9.252,0.356 24.023,0.941 32.823,1.302 9.187,0.376 27.709,0.102 43.5,-0.643 22.377,-1.055 39.101,-1.063 89.781,-0.044 34.255,0.689 68.455,1.542 76,1.895 15.802,0.739 67.522,0.482 86.871,-0.432 z" />
  <path
     style="fill:#000000"
     inkscape:connector-curvature="0"
     id="path89769"
     d="M 256.225,689.254 C 249.59,687.409 243.948,684.66 243,682.81 c -0.423,-0.825 -0.903,-32.198 -1.067,-69.718 l -0.298,-68.218 3.795,-1.722 c 5.277,-2.394 29.667,-2.946 57.519,-1.3 l 21.723,1.283 1.777,5.087 c 1.607,4.603 1.77,9.518 1.715,51.588 -0.037,28.557 -0.592,54.165 -1.438,66.366 l -1.377,19.866 -4.562,2.09 c -4.234,1.94 -6.541,2.106 -32.062,2.301 -20.949,0.161 -28.691,-0.12 -32.5,-1.179 z" />
  <path
     style="fill:#ccccfe"
     inkscape:connector-curvature="0"
     id="path89767"
     d="m 311.617,676.181 2.902,-0.58 0.617,-17.646 c 0.339,-9.705 1.045,-23.945 1.568,-31.645 0.523,-7.7 1.235,-27.097 1.582,-43.105 l 0.631,-29.104 -13.846,-0.655 c -36.631,-1.73 -49.303,-1.917 -50.713,-0.747 -0.779,0.646 -1.699,3.073 -2.044,5.393 -1.029,6.901 -0.753,84.032 0.356,99.718 0.564,7.975 1.032,15.809 1.04,17.409 l 0.015,2.909 27.495,-0.683 c 15.123,-0.376 28.801,-0.945 30.397,-1.264 z" />
  <path
     style="fill:#000000"
     inkscape:connector-curvature="0"
     id="path89765"
     d="m 266.769,668.835 c -1.407,-2.727 -1.913,-30.739 -1.221,-67.525 l 0.677,-36 2.529,-0.295 c 1.871,-0.219 3.137,0.528 4.868,2.87 2.337,3.16 2.339,3.198 1.712,25.295 -0.345,12.171 -0.901,32.298 -1.234,44.727 l -0.605,22.597 5.365,0.644 c 2.951,0.354 7.251,0.648 9.556,0.653 2.305,0.005 4.469,0.459 4.809,1.009 0.34,0.55 3.066,1 6.059,1 5.897,0 7.112,1.404 2.691,3.111 -2.817,1.087 -18.157,2.813 -28.585,3.215 -4.386,0.169 -6.03,-0.154 -6.621,-1.301 z" />
  <path
     style="fill:#000000"
     inkscape:connector-curvature="0"
     id="path89763"
     d="m 99.64,679.635 c -2.568,-2.408 -2.589,-2.555 -3.247,-22.875 -0.365,-11.247 -0.674,-31.925 -0.688,-45.95 -0.014,-14.025 -0.442,-30.9 -0.951,-37.5 -0.509,-6.6 -1.009,-16.95 -1.111,-23 l -0.185,-11 5.884,-0.593 c 3.235,-0.325 20.201,-0.368 37.701,-0.096 l 31.817,0.496 3.602,5.597 c 2.292,3.56 3.554,6.687 3.471,8.596 -1.853,42.305 -2.176,108.041 -0.598,121.595 l 0.535,4.595 -21.823,0.669 c -12.002,0.368 -28.572,0.944 -36.822,1.279 -14.887,0.606 -15.02,0.593 -17.585,-1.813 z" />
  <path
     style="fill:#ccccfe"
     inkscape:connector-curvature="0"
     id="path89761"
     d="m 163.376,669.492 c 0.972,-0.973 2.587,-89.739 1.893,-104.091 l -0.769,-15.908 -29.56,0.664 c -16.258,0.365 -29.745,0.849 -29.972,1.076 -0.755,0.755 -0.573,97.913 0.203,108.283 l 0.763,10.207 6.646,0.423 c 7.66,0.487 50.202,-0.06 50.796,-0.654 z" />
  <path
     style="fill:#000000"
     inkscape:connector-curvature="0"
     id="path89759"
     d="m 117.626,654.416 c -2.237,-3.669 -2.379,-5.218 -0.578,-6.307 1.069,-0.645 1.18,-4.838 0.577,-21.799 -0.41,-11.55 -1.078,-30.407 -1.485,-41.904 l -0.739,-20.904 4.374,0.7 c 2.406,0.384 4.465,0.791 4.576,0.903 0.111,0.113 0.69,3.725 1.288,8.027 1.33,9.576 1.392,24.689 0.159,38.678 -0.509,5.775 -1.221,15.979 -1.583,22.676 l -0.657,12.176 4.834,0.617 c 4.795,0.612 13.145,1.847 20.833,3.08 l 4,0.642 -3.545,1.823 c -4.311,2.217 -13.483,3.961 -23.046,4.384 -7.019,0.309 -7.139,0.272 -9.008,-2.792 z" />
  <path
     style="fill:#fd9800"
     inkscape:connector-curvature="0"
     id="path89757"
     d="m 829.225,488.885 c 15.95,-0.474 29.675,-0.951 30.5,-1.06 2.335,-0.308 56.655,-2.03 74.5,-2.361 23.084,-0.428 36.926,-1.069 37.5,-1.736 0.275,-0.319 3.425,-0.283 7,0.082 3.575,0.364 6.73,0.323 7.011,-0.092 0.715,-1.054 18.926,-1.604 18.271,-0.551 -0.293,0.471 0.311,0.619 1.343,0.329 6.084,-1.713 29.973,-2.699 86.875,-3.586 38.64,-0.603 49.951,-1.073 53.5,-2.226 9.149,-2.973 4.807,-4.465 -17,-5.843 -8.525,-0.539 -22.291,-1.033 -30.591,-1.098 -15.489,-0.122 -21.699,-1.233 -12.788,-2.288 9.355,-1.108 25.031,-1.761 46.879,-1.952 l 22,-0.193 0.288,-6.656 0.289,-6.655 -5.789,-0.444 c -6.872,-0.528 -38.338,-1.584 -50.038,-1.678 -5.26,-0.043 -8.25,-0.463 -8.25,-1.16 0,-0.748 3.714,-0.988 11.75,-0.76 6.462,0.183 12.2,0.055 12.75,-0.285 0.55,-0.34 4.59,-0.692 8.978,-0.783 4.388,-0.091 9.788,-0.578 12,-1.082 2.212,-0.505 7.284,-1.426 11.272,-2.048 l 7.25,-1.13 v -7.435 -7.435 l -13.25,0.513 c -7.288,0.282 -27.65,0.759 -45.25,1.059 -17.6,0.301 -36.725,0.723 -42.5,0.938 -71.094,2.651 -101.299,3.6 -115.75,3.636 -10.553,0.027 -17.25,0.424 -17.25,1.022 0,0.585 -4.132,0.919 -10.25,0.831 -5.638,-0.082 -20.15,0.358 -32.25,0.977 -12.1,0.619 -31.9,1.575 -44,2.125 -43.845,1.993 -57.844,2.894 -58.728,3.778 -0.496,0.495 -0.985,11.067 -1.087,23.493 l -0.185,22.592 5,0.416 c 2.75,0.229 8.6,0.234 13,0.012 4.4,-0.223 21.05,-0.792 37,-1.266 z" />
  <path
     style="fill:#fd9800"
     inkscape:connector-curvature="0"
     id="path89755"
     d="m 189.725,476.144 c 11.825,-0.15 29.567,-0.746 39.427,-1.325 9.861,-0.579 18.186,-0.691 18.5,-0.248 0.664,0.934 6.073,1.042 6.073,0.122 0,-0.779 67.567,-3.128 95.654,-3.326 4.484,-0.031 7.945,-0.395 7.691,-0.807 -0.255,-0.413 8.733,-0.75 19.973,-0.75 17.432,0 20.63,-0.233 21.752,-1.585 0.944,-1.138 1.332,-5.584 1.373,-15.75 l 0.057,-14.165 -29,0.31 c -15.95,0.171 -31.475,0.728 -34.5,1.239 -3.025,0.511 -69.4,1.378 -147.5,1.927 -78.1,0.549 -142.113,1.004 -142.25,1.011 -0.138,0.007 -0.25,3.219 -0.25,7.138 v 7.125 l 3.25,-0.655 c 5.7,-1.148 65.75,0.565 65.75,1.876 0,0.744 -4.366,1.602 -12.25,2.405 -28.663,2.923 -41.648,4.027 -47.889,4.074 -8.613,0.064 -11.142,1.863 -10.232,7.278 0.562,3.347 0.996,3.791 4.248,4.332 1.993,0.332 4.073,0.793 4.623,1.025 0.865,0.365 26.043,0.132 135.5,-1.251 z" />
  <path
     style="fill:#ffcb65"
     inkscape:connector-curvature="0"
     id="path89753"
     d="m 75.395,435.867 c 20.098,-1.278 72.324,-2.782 160.33,-4.616 40.425,-0.843 78,-1.747 83.5,-2.01 5.5,-0.262 18.325,-0.914 28.5,-1.448 41.081,-2.158 48.882,-2.326 50.378,-1.084 0.794,0.659 1.621,0.838 1.838,0.399 0.585,-1.184 -0.946,-23.73 -2.159,-31.798 -0.58,-3.858 -1.466,-38.646 -1.973,-77.5 -0.799,-61.095 -0.728,-70.7 0.528,-71.996 1.085,-1.118 3.305,-1.424 8.813,-1.212 l 7.363,0.282 -0.144,-19.787 -0.144,-19.787 -8,-0.843 c -9.825,-1.035 -346.913,-1.373 -350.75,-0.351 -2.343,0.623 -2.75,1.255 -2.75,4.262 0,1.942 0.637,4.762 1.415,6.267 2.517,4.868 5.552,5.692 19.886,5.403 8.606,-0.174 13.428,0.122 14.34,0.879 0.822,0.682 3.239,0.931 6.007,0.619 2.704,-0.305 5.893,0.008 7.662,0.752 2.943,1.237 2.829,1.291 -3.89,1.844 -3.806,0.313 -8.72,0.599 -10.92,0.636 -2.2,0.036 -6.7,0.499 -10,1.028 -3.3,0.528 -10.264,1.447 -15.476,2.041 -5.212,0.595 -9.596,1.201 -9.743,1.348 -0.147,0.147 0.067,4.223 0.476,9.059 l 0.743,8.791 4,0.303 c 2.2,0.166 9.737,0.608 16.75,0.983 7.012,0.374 12.75,1.01 12.75,1.413 0,0.403 -0.563,0.775 -1.25,0.827 -0.688,0.052 -4.869,1.017 -9.291,2.146 -4.423,1.128 -9.823,2.277 -12,2.553 -2.178,0.276 -5.845,0.783 -8.15,1.126 l -4.191,0.623 -0.585,5.145 c -0.322,2.83 -0.686,37.771 -0.809,77.646 l -0.224,72.5 23.5,0.661 c 25.137,0.708 36.399,1.427 42,2.682 3.049,0.683 2.404,0.889 -5,1.598 -11.248,1.078 -15.336,1.373 -29,2.089 -6.325,0.331 -13.525,1.002 -16,1.491 -2.475,0.488 -7.313,1.177 -10.75,1.531 l -6.25,0.644 v 5.883 c 0,5.604 0.13,5.911 2.75,6.489 1.512,0.334 3.2,0.757 3.75,0.94 1.828,0.61 7.199,0.501 22.17,-0.451 z" />
  <path
     style="fill:#000000"
     inkscape:connector-curvature="0"
     id="path89751"
     d="m 309.225,402.76 c -2.75,-0.431 -15.588,-0.527 -28.529,-0.214 -26.602,0.644 -30.266,0.27 -32.622,-3.326 -2.788,-4.255 -4.263,-27.488 -4.311,-67.91 -0.045,-37.999 1.297,-66.27 3.442,-72.481 l 1.215,-3.519 14.402,-0.628 c 20.886,-0.911 64.604,-1.175 65.861,-0.398 0.591,0.365 0.845,1.035 0.565,1.489 -0.28,0.453 0.176,2.467 1.015,4.474 3.895,9.321 6.072,59.003 3.378,77.063 -0.574,3.85 -1.064,18.47 -1.088,32.489 l -0.043,25.489 -4.261,4.261 c -3.917,3.917 -4.655,4.25 -9.142,4.127 -2.685,-0.073 -7.132,-0.486 -9.882,-0.916 z" />
  <path
     style="fill:#ccccfe"
     inkscape:connector-curvature="0"
     id="path89749"
     d="m 322.161,390.06 c 0.361,-2.063 0.908,-31.158 1.217,-64.656 l 0.561,-60.906 -16.857,0.683 c -14.425,0.585 -50.519,2.405 -51.024,2.573 -0.364,0.121 -2.449,10.82 -3.357,17.227 -1.86,13.11 -2.902,59.518 -1.738,77.329 0.866,13.234 1.519,18.66 2.903,24.117 l 1.045,4.117 6.157,0.701 c 3.386,0.386 14.257,0.938 24.157,1.227 9.9,0.289 18.187,0.708 18.417,0.932 0.229,0.223 4.342,0.406 9.14,0.406 h 8.724 z" />
  <path
     style="fill:#000000"
     inkscape:connector-curvature="0"
     id="path89747"
     d="m 271.996,378.897 c -2.334,-1.088 -5.163,-3.454 -6.312,-5.279 -1.853,-2.942 -2.004,-4.194 -1.367,-11.308 0.809,-9.032 0.987,-44.36 0.339,-67.159 -0.237,-8.337 -0.158,-15.435 0.176,-15.773 1.157,-1.173 3.974,0.688 5.496,3.631 0.841,1.626 2.436,8.209 3.545,14.629 1.842,10.669 1.957,14.259 1.34,41.808 l -0.675,30.136 4.343,0.639 c 2.389,0.351 10.419,1.034 17.844,1.517 15.633,1.018 14,0.745 14,2.342 0,1.594 -16.639,5.424 -27,6.215 -6.185,0.472 -8.242,0.227 -11.729,-1.398 z" />
  <path
     style="fill:#000000"
     inkscape:connector-curvature="0"
     id="path89745"
     d="m 94.309,396.3 c -1.501,-1.391 -2.627,-3.567 -2.688,-5.193 -0.057,-1.538 -0.305,-6.847 -0.552,-11.797 -0.693,-13.904 -0.708,-91.482 -0.021,-105.5 0.95,-19.359 0.673,-18.632 7.451,-19.561 3.149,-0.432 6.128,-0.687 6.619,-0.565 1.073,0.265 25.16,-1.489 39.107,-2.848 5.5,-0.536 14.189,-1.208 19.308,-1.494 l 9.308,-0.519 2.572,5.743 c 2.339,5.223 2.658,7.557 3.518,25.744 1.065,22.524 -0.524,106.577 -2.093,110.703 -0.918,2.414 -1.313,2.505 -13.779,3.18 -38.157,2.066 -46.318,2.557 -51.334,3.091 -14.593,1.552 -14.685,1.547 -17.416,-0.984 z" />
  <path
     style="fill:#ccccfe"
     inkscape:connector-curvature="0"
     id="path89743"
     d="m 140.725,384.837 c 7.425,-0.54 16.762,-1.269 20.75,-1.622 l 7.25,-0.64 0.076,-13.133 c 0.041,-7.223 0.275,-20.782 0.518,-30.132 0.243,-9.35 -0.098,-31.288 -0.759,-48.75 l -1.201,-31.75 -3.567,-0.006 c -6.89,-0.013 -38.663,2.081 -47.567,3.135 -13.819,1.635 -14.462,1.824 -14.423,4.242 0.019,1.171 -0.422,13.604 -0.979,27.629 -0.557,14.025 -1.032,40.757 -1.055,59.404 l -0.043,33.903 13.75,-0.65 c 7.562,-0.357 19.825,-1.091 27.25,-1.63 z" />
  <path
     style="fill:#000000"
     inkscape:connector-curvature="0"
     id="path89741"
     d="m 122.533,371.625 c -2.602,-1.257 -4.951,-3.169 -5.273,-4.291 -1.919,-6.702 -4.072,-70.514 -2.727,-80.854 1.106,-8.506 1.606,-9.656 3.412,-7.85 3.665,3.665 5.131,17.744 6.628,63.665 l 0.652,19.985 4,0.853 c 2.2,0.469 6.362,1.08 9.25,1.357 2.887,0.278 5.25,0.863 5.25,1.302 0,0.438 3.937,0.567 8.75,0.286 9.902,-0.577 10.141,0.432 0.75,3.177 -7.616,2.225 -13.549,3.41 -20.5,4.095 -4.422,0.435 -6.42,0.097 -10.192,-1.725 z" />
  <path
     style="fill:#ffcb65"
     inkscape:connector-curvature="0"
     id="path89739"
     d="m 843.225,431.788 c 16.5,-0.541 37.875,-1.242 47.5,-1.557 19.825,-0.65 26.891,-0.966 53,-2.373 10.175,-0.549 36.05,-1.925 57.5,-3.06 21.45,-1.135 46.425,-2.49 55.5,-3.012 14.995,-0.863 36.016,-1.894 74.402,-3.649 9.445,-0.432 15.376,-1.194 18.5,-2.377 l 4.598,-1.741 0.294,-5.98 c 0.287,-5.82 0.221,-5.996 -2.5,-6.623 -1.537,-0.353 -11.569,-0.867 -22.294,-1.142 -18.986,-0.485 -35.647,-2.083 -36.524,-3.504 -0.239,-0.386 1.468,-0.993 3.794,-1.348 6.867,-1.048 42.131,-3.483 42.967,-2.966 0.422,0.261 3.916,0.164 7.765,-0.215 l 6.998,-0.69 v -8.721 -8.721 l -11.75,-1.179 c -19.097,-1.916 -42.526,-3.112 -48.079,-2.454 -4.157,0.492 -5.171,0.325 -5.171,-0.855 0,-2.528 9.474,-4.015 31,-4.865 11.275,-0.445 23.475,-0.84 27.112,-0.878 l 6.612,-0.068 0.667,-5.672 c 0.367,-3.119 0.316,-6.007 -0.112,-6.418 -0.429,-0.411 -8.654,-1.238 -18.279,-1.837 -37.513,-2.336 -50,-3.831 -50,-5.987 0,-1.58 5.702,-1.967 30.576,-2.078 22.504,-0.1 36.625,-0.876 37.827,-2.078 0.243,-0.243 0.556,-3.589 0.697,-7.436 l 0.255,-6.994 -27.927,-1.143 c -30.823,-1.262 -45.264,-2.855 -43.337,-4.781 0.808,-0.809 30.508,-2.711 50.909,-3.26 11.275,-0.304 20.55,-0.612 20.61,-0.684 0.061,-0.073 -0.164,-3.456 -0.5,-7.519 l -0.61,-7.386 -7,-0.317 c -7.216,-0.326 -24.215,-1.783 -40,-3.428 -4.95,-0.516 -12.961,-1.215 -17.802,-1.554 -5.992,-0.42 -8.68,-0.986 -8.418,-1.772 0.27,-0.816 8.402,-1.343 27.633,-1.791 14.988,-0.349 31.538,-1.224 36.778,-1.943 l 9.528,-1.308 -0.61,-4.447 c -0.335,-2.446 -0.609,-5.23 -0.609,-6.188 0,-2.764 -7.249,-3.98 -23.693,-3.974 -26.115,0.009 -51.307,-3.035 -51.307,-6.199 0,-1.863 3.771,-2.097 14.911,-0.924 15.456,1.627 43.738,2.209 49.074,1.01 2.355,-0.53 5.608,-1.117 7.227,-1.305 1.619,-0.189 3.318,-0.736 3.776,-1.215 0.762,-0.8 1.485,-7.146 1.152,-10.122 -0.108,-0.964 -5.921,-1.25 -25.338,-1.25 -23.903,0 -35.062,-0.763 -47.992,-3.279 -3.129,-0.609 -5.468,-1.465 -5.198,-1.903 0.271,-0.437 -0.207,-0.527 -1.06,-0.2 -0.854,0.328 -1.552,0.097 -1.552,-0.511 0,-0.704 2.639,-1.121 7.25,-1.145 9.727,-0.05 23.993,-0.828 36.674,-1.999 5.733,-0.53 14.283,-1.003 19,-1.051 4.717,-0.048 10.826,-0.386 13.576,-0.75 4.874,-0.646 5.008,-0.753 5.301,-4.257 l 0.301,-3.595 -16.801,-0.761 c -9.241,-0.418 -28.592,-1.05 -43.003,-1.405 -25.829,-0.635 -29.625,-1.188 -27.852,-4.057 0.462,-0.747 10.901,-1.087 33.365,-1.087 28.422,0 34.051,-0.259 43.088,-1.981 5.718,-1.09 10.492,-2.102 10.61,-2.25 0.118,-0.148 0.472,-3.487 0.786,-7.42 l 0.572,-7.152 -13.684,-0.848 c -30.346,-1.883 -233.056,-0.704 -290.683,1.69 -17.243,0.717 -33.222,0.719 -51.5,0.006 -14.575,-0.568 -32.474,-1.035 -39.775,-1.039 l -13.276,-0.006 0.276,15.75 0.275,15.75 11.286,0.157 c 6.874,0.096 11.833,0.612 12.685,1.319 2.22,1.842 2.845,6.599 1.211,9.21 -4.023,6.428 -4.064,161.439 -0.047,180.038 l 0.588,2.723 19.138,-0.492 c 10.527,-0.271 32.639,-0.936 49.139,-1.477 z" />
  <path
     style="fill:#000000"
     inkscape:connector-curvature="0"
     id="path89737"
     d="m 834.021,408.005 c -0.33,-0.932 -1.222,-2.422 -1.982,-3.311 -1.216,-1.422 -2.379,-8.056 -3.75,-21.384 -2.179,-21.179 -3.131,-114.482 -1.21,-118.603 0.894,-1.919 8.946,-2.523 51.972,-3.901 l 28.826,-0.923 6.424,4.125 6.424,4.124 0.085,45.589 c 0.047,25.074 0.043,47.839 -0.008,50.589 -0.051,2.75 0.614,10.85 1.479,18 2.303,19.031 2.378,17.685 -1.056,18.82 -1.65,0.545 -16.089,1.077 -32.087,1.183 -24.522,0.161 -29.544,0.442 -32,1.79 -1.602,0.879 -5.838,2.024 -9.413,2.543 -3.575,0.519 -7.986,1.419 -9.802,1.999 -2.798,0.894 -3.394,0.796 -3.902,-0.64 z" />
  <path
     style="fill:#ccccfe"
     inkscape:connector-curvature="0"
     id="path89735"
     d="m 871.612,393.259 c 16.837,-0.144 31.738,-0.472 33.113,-0.728 1.375,-0.256 3.287,-0.523 4.25,-0.594 1.63,-0.119 1.748,-2.438 1.721,-33.877 -0.016,-18.563 -0.496,-44.325 -1.068,-57.25 -0.571,-12.925 -1.036,-24.288 -1.033,-25.25 0.005,-1.635 -2.401,-1.75 -36.588,-1.75 h -36.593 l 0.693,14.25 c 1.389,28.525 2.552,67.706 2.584,87.059 0.025,14.54 0.337,19.622 1.171,19.106 0.626,-0.387 14.914,-0.821 31.75,-0.966 z" />
  <path
     style="fill:#000000"
     inkscape:connector-curvature="0"
     id="path89733"
     d="m 856.975,377.994 c -2.532,-1.205 -3.25,-2.17 -3.25,-4.366 0,-1.838 -0.522,-2.818 -1.5,-2.818 -1.606,0 -2.074,-2.528 -0.633,-3.418 0.486,-0.301 0.457,-2.414 -0.066,-4.809 -0.514,-2.35 -1.354,-6.192 -1.867,-8.538 -0.514,-2.345 -0.961,-6.395 -0.994,-9 -0.032,-2.604 -0.412,-6.876 -0.842,-9.493 -0.591,-3.588 -0.443,-5.041 0.602,-5.908 1.825,-1.515 2.696,-0.506 5.32,6.166 1.824,4.639 2.158,7.495 2.133,18.247 l -0.03,12.746 8.689,0.119 c 4.778,0.065 10.375,0.111 12.438,0.103 2.777,-0.012 3.75,0.399 3.75,1.585 0,1.244 0.267,1.333 1.2,0.4 1.519,-1.519 4.969,-1.536 8.253,-0.04 l 2.546,1.16 -3.816,1.709 c -2.098,0.94 -8.961,2.914 -15.249,4.388 -6.289,1.473 -11.884,2.822 -12.434,2.996 -0.55,0.175 -2.463,-0.378 -4.25,-1.229 z" />
  <path
     style="fill:#000000"
     inkscape:connector-curvature="0"
     id="path89731"
     d="m 1014.725,407.776 c -1.925,-0.456 -8,-1.113 -13.5,-1.46 -12.627,-0.797 -29.481,-2.445 -31.68,-3.098 -1.24,-0.368 -1.575,-1.338 -1.281,-3.703 0.219,-1.763 0.62,-14.905 0.89,-29.205 0.784,-41.462 2.693,-98.706 3.411,-102.284 l 0.66,-3.284 19,-0.353 c 10.45,-0.194 29.125,-0.685 41.5,-1.091 l 22.5,-0.737 2.829,3.012 2.829,3.011 -1.826,14.863 c -1.554,12.65 -1.826,22.629 -1.829,67.032 v 52.17 l -5,1.956 c -2.75,1.075 -6.852,2.461 -9.116,3.08 -4.681,1.279 -24.114,1.339 -29.384,0.091 z" />
  <path
     style="fill:#ccccfe"
     inkscape:connector-curvature="0"
     id="path89729"
     d="m 1026.814,395.159 19.411,-0.65 0.025,-16.1 c 0.014,-8.854 0.344,-23.974 0.734,-33.599 0.391,-9.625 0.955,-26.725 1.254,-38 0.299,-11.275 0.78,-23.1 1.068,-26.276 l 0.524,-5.777 -32.529,0.303 c -21.12,0.197 -32.9,0.674 -33.586,1.36 -0.622,0.622 -1.439,10.486 -1.986,23.973 -1.237,30.502 -2.114,93.973 -1.31,94.777 0.822,0.823 21.674,0.818 46.395,-0.011 z" />
  <path
     style="fill:#000000"
     inkscape:connector-curvature="0"
     id="path89727"
     d="m 993.314,386.911 c -5.031,-2.878 -5.161,-3.686 -3.186,-19.791 0.999,-8.146 2.45,-17.735 3.225,-21.31 2.161,-9.967 4.625,-19.038 5.281,-19.445 0.325,-0.202 0.457,11.797 0.294,26.665 l -0.296,27.031 2.796,-0.672 c 5.892,-1.414 33.889,-1.869 37.697,-0.612 4.754,1.569 4.132,3.341 -1.483,4.233 -2.429,0.386 -6.892,1.182 -9.917,1.768 -5.255,1.02 -17.381,2.546 -27,3.399 -2.992,0.265 -5.475,-0.159 -7.411,-1.266 z" />
  <path
     style="fill:#fe6500"
     inkscape:connector-curvature="0"
     id="path89725"
     d="m 747.225,422.178 c 3.3,-0.367 7.802,-0.731 10.005,-0.808 6.438,-0.225 6.708,-0.677 5.917,-9.907 -0.385,-4.484 -1.026,-9.053 -1.426,-10.153 -0.716,-1.973 -1.641,-2 -68.611,-2.013 -37.337,-0.007 -78.91,-0.341 -92.385,-0.744 -69.717,-2.08 -115.362,-2.856 -151,-2.565 l -39.5,0.322 -0.28,12.75 c -0.215,9.803 0.016,12.77 1,12.837 7.323,0.499 12.152,0.952 12.36,1.16 0.591,0.591 318.469,-0.271 323.92,-0.879 z" />
  <path
     style="fill:#00ff00"
     inkscape:connector-curvature="0"
     id="path89723"
     d="m 1138.454,393.205 c -0.332,-0.332 -1.195,-0.367 -1.917,-0.078 -0.797,0.319 -0.56,0.556 0.605,0.604 1.054,0.043 1.644,-0.193 1.312,-0.525 z" />
  <path
     style="fill:#feca98"
     inkscape:connector-curvature="0"
     id="path89721"
     d="m 740.725,389.687 c 6.325,-0.596 13.819,-1.511 16.654,-2.032 6.058,-1.114 6.1,-1.208 6.301,-14.383 l 0.138,-9.037 -12.297,-2.349 c -6.763,-1.292 -15.671,-2.559 -19.796,-2.815 -10.643,-0.66 -15.274,-1.583 -15.796,-3.15 -0.354,-1.06 0.399,-1.215 3.421,-0.704 7.805,1.319 37.563,1.853 41.279,0.74 l 3.638,-1.09 -0.369,-7.779 c -0.203,-4.278 -0.726,-8.157 -1.162,-8.619 -0.436,-0.463 -6.805,-1.267 -14.152,-1.786 -17.438,-1.234 -29.087,-3.052 -29.61,-4.623 -0.324,-0.976 4.546,-1.25 22.168,-1.25 h 22.583 v -7.025 c 0,-6.674 -0.132,-7.075 -2.643,-8.03 -1.453,-0.552 -11.465,-1.39 -22.25,-1.861 -19.101,-0.835 -25.633,-2.022 -24.795,-4.507 0.374,-1.109 4.249,-1.186 28.188,-0.554 7.15,0.189 14.918,-0.005 17.262,-0.43 l 4.263,-0.773 -0.263,-8.625 -0.262,-8.624 -13,0.264 c -12.267,0.25 -30.252,-1.035 -33.861,-2.421 -2.41,-0.924 -2.007,-4.083 0.611,-4.784 1.237,-0.332 11.025,-0.654 21.75,-0.716 10.725,-0.063 20.625,-0.424 22,-0.804 2.068,-0.571 2.552,-1.392 2.8,-4.755 l 0.301,-4.065 -5.301,-0.636 c -2.915,-0.351 -9.575,-0.661 -14.8,-0.69 -5.225,-0.028 -12.875,-0.485 -17,-1.013 -4.125,-0.529 -9.876,-1.248 -12.779,-1.599 -10.575,-1.278 -5.813,-2.14 11.034,-1.998 16.397,0.138 24.07,-0.292 33.382,-1.872 3.805,-0.645 4.185,-0.994 4.739,-4.342 1.149,-6.949 0.793,-9.061 -1.626,-9.646 -1.809,-0.437 -90.037,-0.058 -186.75,0.803 -8.525,0.075 -44.525,-0.316 -80,-0.87 -44.394,-0.693 -68.864,-0.683 -78.5,0.033 l -14,1.04 -0.361,15.5 c -0.352,15.07 1.449,87.374 2.726,109.49 l 0.635,10.99 10,1.316 c 7.143,0.939 15.142,1.112 28,0.603 21.21,-0.84 48.723,-0.773 167,0.41 93.405,0.933 112.148,0.799 130.5,-0.932 z" />
  <path
     style="fill:#000000;fill-opacity:1"
     inkscape:connector-curvature="0"
     id="path89719"
     d="m 692.13,339.7 c -1.53,-1.694 -1.905,-3.645 -1.905,-9.897 0,-7.409 -0.16,-7.964 -3.297,-11.416 -7.737,-8.513 -10.276,-14.802 -6.387,-15.819 1.838,-0.481 6.184,2.305 6.184,3.964 0,1.403 5.704,5.278 7.769,5.278 1.018,0 4.223,-2.025 7.122,-4.5 5.425,-4.631 11.109,-6.19 11.109,-3.047 0,2.067 -2.163,6.547 -3.161,6.547 -0.461,0 -0.839,0.511 -0.839,1.135 0,1.138 -4.587,5.865 -5.691,5.865 -1.73,0 -3.252,4.15 -3.301,9 -0.093,9.207 -2.034,14.905 -5.103,14.984 -0.327,0.008 -1.452,-0.934 -2.5,-2.094 z" />
  <path
     style="fill:#000000;fill-opacity:1"
     inkscape:connector-curvature="0"
     id="path89717"
     d="m 563.201,304.31 c -10.152,0 -10.404,0.404 -10.445,16.716 -0.025,10.02 0.334,13.483 1.692,16.331 0.947,1.987 1.886,3.127 2.084,2.533 0.198,-0.594 0.934,-1.08 1.636,-1.08 0.793,0 1.51,-1.963 1.891,-5.174 0.337,-2.846 1.066,-5.626 1.619,-6.18 1.565,-1.564 5.727,1.162 7.51,4.918 1.764,3.717 3.264,4.564 5.787,3.266 2.139,-1.101 2.218,-3.411 0.244,-7.196 -1.859,-3.563 -1.856,-7.376 0.006,-10.634 2.302,-4.028 1.813,-7.326 -1.566,-10.563 -2.827,-2.708 -3.643,-2.937 -10.457,-2.937 z m 1.448,7.099 c 2.526,0.015 5.076,1.189 5.076,2.725 0,1.95 -7.498,4.777 -8.914,3.361 -1.89,-1.89 -1.193,-4.694 1.414,-5.685 0.742,-0.282 1.582,-0.406 2.424,-0.401 z" />
  <path
     style="fill:#000000;fill-opacity:1"
     inkscape:connector-curvature="0"
     id="path89713"
     d="m 526.549,301.177 c -1.731,0.053 -3.596,0.711 -6.178,1.933 -6.527,3.091 -8.134,6.287 -8.138,16.2 -0.003,6.932 2.39,14.13 6.189,18.615 1.118,1.32 2.231,1.454 6.086,0.738 5.208,-0.967 11.311,-3.542 12.451,-5.252 1.192,-1.788 0.87,-13.099 -0.41,-14.379 -0.902,-0.902 -0.834,-1.589 0.291,-2.949 0.995,-1.202 1.293,-3.052 0.926,-5.74 -0.423,-3.1 -1.294,-4.47 -3.982,-6.277 -3.009,-2.022 -5.01,-2.957 -7.235,-2.889 z m 0.965,8.635 c 2.699,-0.102 2.835,1.338 0.021,3.959 -3.042,2.834 -5.81,2.671 -5.81,-0.344 0,-1.626 0.715,-2.575 2.25,-2.986 1.455,-0.39 2.639,-0.596 3.539,-0.629 z m 1.119,13.781 c 2.205,-0.004 4.092,0.876 4.092,2.178 0,0.473 -1.943,1.8 -4.316,2.949 -5.261,2.546 -6.688,2.62 -6.668,0.34 0.023,-2.724 1.362,-4.211 4.638,-5.151 0.748,-0.214 1.519,-0.315 2.254,-0.316 z" />
  <path
     style="fill:#000000;fill-opacity:1"
     inkscape:connector-curvature="0"
     id="path89707"
     d="m 654.563,302.81 c -4.796,0 -7.124,0.564 -10.5,2.543 l -4.338,2.541 v 13.523 c 0,7.438 0.466,14.395 1.035,15.459 0.573,1.071 2.085,1.934 3.389,1.934 1.906,0 2.51,-0.712 3.177,-3.75 0.453,-2.063 0.791,-4.763 0.752,-6 -0.068,-2.183 1.13,-2.77 4.647,-2.278 0.825,0.116 1.651,0.62 1.834,1.119 0.183,0.5 0.877,0.909 1.543,0.909 0.666,0 2.937,1.822 5.047,4.049 4.942,5.215 7.11,4.911 6.978,-0.981 -0.078,-3.514 -0.617,-4.749 -2.75,-6.303 -3.047,-2.219 -3.444,-5.725 -1.146,-10.131 1.733,-3.323 1.929,-6.247 0.478,-7.144 -0.559,-0.346 -0.739,-1.078 -0.4,-1.627 0.339,-0.549 -0.327,-1.245 -1.483,-1.547 -1.155,-0.302 -2.101,-0.948 -2.101,-1.434 0,-0.485 -2.773,-0.882 -6.162,-0.882 z m -2.838,9 c 5.443,0 6.629,1.338 2.25,2.537 -5.731,1.569 -7.25,1.317 -7.25,-1.203 0,-0.934 1.5,-1.334 5,-1.334 z" />
  <path
     style="fill:#000000;fill-opacity:1"
     inkscape:connector-curvature="0"
     id="path89703"
     d="m 610.744,304.81 c -5.374,0 -8.679,2.683 -12.052,9.785 -3.154,6.638 -5.05,17.95 -3.629,21.654 1.261,3.288 4.208,1.638 6.91,-3.871 2.508,-5.113 2.926,-5.472 7.137,-6.103 5.6,-0.84 6.28,-0.404 7.119,4.56 0.81,4.796 2.727,6.989 5.478,6.27 2.267,-0.593 2.591,-3.347 1.082,-9.18 -0.514,-1.989 -1.695,-7.113 -2.623,-11.389 -1.852,-8.536 -4.414,-11.726 -9.422,-11.726 z m 1.04,8 c 1.403,0 1.941,0.692 1.941,2.5 0,1.846 -0.531,2.5 -2.031,2.5 -2.167,0 -3.57,-2.218 -2.498,-3.952 0.356,-0.576 1.52,-1.048 2.588,-1.048 z" />
  <path
     style="fill:#000000;fill-opacity:1"
     inkscape:connector-curvature="0"
     id="path89699"
     d="m 454.045,334.177 c -1.483,-2.263 -1.857,-5.104 -2.019,-15.323 -0.247,-15.619 0.184,-18.044 3.207,-18.044 3.073,0 5.492,6.145 5.492,13.955 0,8.239 1.331,11.429 4.442,10.649 4.91,-1.233 9.135,8.403 4.308,9.826 -1.238,0.365 -4.806,0.9 -7.93,1.189 -5.366,0.496 -5.78,0.372 -7.5,-2.252 z" />
  <path
     style="fill:#000000;fill-opacity:1"
     inkscape:connector-curvature="0"
     id="path89697"
     d="m 489.288,334.879 c -2.413,-2.666 -3.532,-8.248 -3.421,-17.069 0.132,-10.46 0.896,-13.433 3.551,-13.812 3.118,-0.445 5.076,3.122 6.23,11.345 1.089,7.764 0.958,10.286 -0.812,15.637 -1.7,5.14 -3.366,6.311 -5.548,3.899 z" />
  <path
     style="fill:#cc9866"
     inkscape:connector-curvature="0"
     id="path89679"
     d="m 470.104,243.725 c 17.117,-0.503 84.402,-1.337 149.523,-1.852 95.838,-0.759 118.567,-1.188 119.268,-2.25 0.874,-1.326 0.459,-66.255 -0.802,-125.419 l -0.685,-32.106 -2.591,-3.105 c -4.165,-4.989 -13.029,-9.581 -27.285,-14.134 -18.259,-5.832 -26.796,-9.123 -37.553,-14.477 -5.054,-2.515 -9.415,-4.572 -9.692,-4.572 -0.765,0 -11.484,-4.828 -16.562,-7.459 -2.475,-1.282 -8.1,-3.797 -12.5,-5.588 -4.4,-1.791 -8.45,-3.596 -9,-4.012 -0.55,-0.415 -5.05,-2.417 -10,-4.448 -4.95,-2.031 -10.35,-4.306 -12,-5.055 -1.65,-0.749 -6.321,-2.547 -10.38,-3.994 -10.349,-3.69 -10.365,-3.685 -33.804,10.687 -5.949,3.647 -17.341,9.921 -25.316,13.941 -14.963,7.543 -29.048,15.642 -37.134,21.35 -2.548,1.799 -7.048,4.057 -10,5.017 -4.84,1.573 -15.004,6.999 -18.866,10.071 -0.825,0.656 -3.525,2.272 -6,3.591 -2.475,1.319 -5.078,2.944 -5.784,3.612 -0.707,0.667 -5.657,3.689 -11,6.715 -13.573,7.688 -16.333,10.168 -16.791,15.089 -0.204,2.19 -0.814,8.708 -1.355,14.483 -2.082,22.211 -3.255,45.449 -2.602,51.543 l 0.68,6.356 4.676,0.603 c 2.572,0.331 5.576,0.899 6.676,1.262 1.1,0.363 32.113,0.903 68.917,1.198 54.014,0.434 67.001,0.791 67.355,1.852 0.334,1.004 -0.525,1.17 -3.653,0.703 -5.595,-0.834 -80.898,2.312 -84.564,3.533 -2.189,0.73 -4.199,0.564 -7.838,-0.644 -4.102,-1.363 -7.75,-1.526 -22.555,-1.008 -22.026,0.77 -29.458,1.493 -30.397,2.956 -1.287,2.007 -0.885,17.302 0.485,18.439 1.914,1.588 47.785,3.326 100.75,3.816 48.28,0.447 56.362,0.803 55.81,2.462 -0.353,1.057 -75.056,1.513 -76.747,0.468 -0.586,-0.363 -6.578,-0.176 -13.315,0.415 -6.736,0.592 -18.098,1.562 -25.248,2.156 -7.15,0.595 -16.375,1.504 -20.5,2.021 -4.125,0.516 -10.425,1.213 -14,1.547 -3.575,0.335 -6.831,1.107 -7.235,1.715 -0.968,1.459 -0.982,23.051 -0.015,24.041 0.412,0.422 4.746,0.458 9.629,0.081 4.884,-0.377 22.884,-1.097 40,-1.6 z" />
  <path
     style="fill:#000000"
     inkscape:connector-curvature="0"
     id="path89677"
     d="m 580.225,168.668 c -2.2,-0.517 -5.013,-0.688 -6.252,-0.38 -1.315,0.328 -4.018,-0.326 -6.5,-1.572 -8.024,-4.029 -20.663,-12.978 -22.865,-16.191 -1.213,-1.768 -3.225,-4.34 -4.472,-5.715 -2.884,-3.18 -7.053,-11.499 -9.149,-18.257 -2.112,-6.808 -2.027,-23.408 0.158,-30.843 4.279,-14.564 13.118,-30.753 20.764,-38.034 2.677,-2.548 7.668,-6.08 11.091,-7.848 5.719,-2.954 7.2,-3.258 18.225,-3.739 17.7,-0.773 28.127,1.226 37.279,7.146 3.845,2.488 8.77,6.672 10.945,9.299 5.292,6.395 10.636,17.317 12.364,25.276 1.607,7.396 1.662,29.061 0.088,34.206 -0.554,1.812 -1.273,4.884 -1.596,6.827 -0.565,3.387 -3.962,8.521 -12.852,19.422 -6.698,8.214 -16.371,16.12 -23.907,19.54 -4.75,2.155 -16.047,2.574 -23.321,0.863 z" />
  <path
     style="fill:#feca98"
     inkscape:connector-curvature="0"
     id="path89675"
     d="m 594.894,155.198 c 7.05,-1.794 9.394,-2.839 12.331,-5.496 10.285,-9.306 17.805,-16.695 18.799,-18.47 0.661,-1.179 2.42,-3.968 3.909,-6.197 4.523,-6.769 6.065,-15.816 4.718,-27.68 C 632.46,78.048 630.278,73.109 619.058,62.062 606.39,49.588 592.607,47.306 572.225,54.308 c -7.66,2.631 -11.324,5.352 -17.11,12.707 -10.022,12.738 -14.496,21.583 -17,33.611 -2.31,11.098 -0.552,28.199 3.337,32.454 1.122,1.226 2.76,3.657 3.641,5.401 0.881,1.744 3.071,4.179 4.867,5.411 1.796,1.232 4.464,3.34 5.931,4.685 1.466,1.345 6.191,3.711 10.5,5.258 9.322,3.348 18.907,3.806 28.503,1.363 z" />
  <path
     style="fill:#000000"
     inkscape:connector-curvature="0"
     id="path89673"
     d="m 582.934,144.377 c -4.206,-1.527 -7.893,-5.274 -8.784,-8.928 -0.605,-2.482 -0.448,-2.788 1.189,-2.311 4.784,1.394 15.271,1.78 19.249,0.708 5.628,-1.515 14.119,-6.99 22.032,-14.205 3.517,-3.207 6.754,-5.831 7.193,-5.831 1.072,0 3.912,4.129 3.912,5.687 0,1.905 -5.108,9.517 -8.811,13.132 -4.951,4.834 -9.854,7.618 -18.567,10.544 -8.421,2.828 -12.214,3.091 -17.413,1.204 z" />
  <path
     style="fill:#000000"
     inkscape:connector-curvature="0"
     id="path89671"
     d="m 558.669,125.012 c -3.654,-3.864 -5.801,-17.707 -4.024,-25.947 3.058,-14.181 5.182,-19.513 9.909,-24.874 5.459,-6.192 10.677,-8.99 17.962,-9.63 4.441,-0.391 5.453,-0.164 6.296,1.412 1.388,2.592 0.339,3.837 -3.233,3.837 -4.882,0 -16.837,8.955 -19.356,14.5 -5.009,11.024 -5.715,20.477 -2.458,32.911 1.57,5.995 1.772,8.11 0.877,9.188 -1.663,2.004 -3.065,1.676 -5.973,-1.397 z" />
  <path
     style="fill:#fd9800"
     inkscape:connector-curvature="0"
     id="path89669"
     d="m 849.725,200.35 c 7.425,-0.262 33.75,-0.949 58.5,-1.525 24.75,-0.576 51.3,-1.517 59,-2.09 7.7,-0.573 51.125,-1.173 96.5,-1.333 45.375,-0.16 84.3,-0.586 86.5,-0.946 7.836,-1.282 8.871,-1.675 7.645,-2.902 -0.763,-0.762 -1.145,-6.383 -1.145,-16.822 0,-12.716 -0.283,-15.913 -1.5,-16.922 -1.198,-0.995 -1.5,-0.992 -1.5,0.011 0,1.003 -21.623,1.132 -107.75,0.64 -59.263,-0.339 -109.325,-0.867 -111.25,-1.175 -6.614,-1.056 -185.427,-1.631 -186.943,-0.6 -1.132,0.769 -1.208,1.497 -0.352,3.375 0.708,1.555 0.791,3.949 0.237,6.822 -0.47,2.435 -0.875,9.472 -0.899,15.638 -0.051,13.189 0.495,14.094 10.427,17.283 5.631,1.809 8.446,1.907 42.53,1.48 20.075,-0.251 42.575,-0.671 50,-0.934 z" />
  <path
     style="fill:#fd9800"
     inkscape:connector-curvature="0"
     id="path89667"
     d="m 96.668,196.828 c 17.327,-1.254 75.405,-2.965 106.303,-3.133 11.439,-0.062 16.539,-0.424 16.095,-1.142 -0.384,-0.622 -0.17,-0.755 0.524,-0.327 1.364,0.843 113.859,0.872 115.222,0.03 0.502,-0.311 0.913,-0.158 0.913,0.338 0,0.808 18.033,1.449 48,1.707 5.775,0.049 12.525,-0.326 15,-0.833 7.032,-1.443 11.135,-1.685 10.476,-0.619 -0.764,1.236 0.168,1.222 2.521,-0.038 1.348,-0.721 1.836,-2.039 1.759,-4.75 -0.058,-2.063 0.247,-10.882 0.679,-19.598 l 0.785,-15.846 -21.86,0.846 c -24.706,0.957 -230.887,0.97 -250.86,0.017 -12.863,-0.614 -29.48,-1.134 -69.75,-2.18 -20.345,-0.529 -20.75,-0.5 -20.75,1.485 0,1.114 -0.338,2.028 -0.75,2.032 -0.656,0.006 -1.002,28.901 -0.452,37.743 l 0.202,3.25 5.75,0.108 c 3.162,0.06 8.45,0.444 11.75,0.853 9.038,1.122 13.614,1.131 28.443,0.057 z" />
  <path
     style="fill:#000000"
     inkscape:connector-curvature="0"
     id="path89665"
     d="m 1123.225,787.179 c -5.003,-0.552 -21.68,-2.338 -27,-2.891 -2.75,-0.286 -7.7,-0.758 -11,-1.049 -25.061,-2.208 -24.387,-4.255 2.5,-7.592 5.225,-0.648 26.6,-1.439 47.5,-1.758 l 38,-0.579 0.633,-5.5 c 0.347,-3.025 1.348,-12.612 2.223,-21.303 0.875,-8.692 1.794,-16.132 2.043,-16.534 0.248,-0.402 0.713,-11.93 1.032,-25.619 0.319,-13.689 0.766,-25.074 0.992,-25.301 0.453,-0.453 1.199,5.974 2.118,18.257 0.329,4.4 1.016,10.925 1.526,14.5 2.983,20.881 2.781,51.697 -0.413,63 -0.854,3.025 -1.944,6.85 -2.422,8.5 l -0.868,3 -9.932,0.632 c -10.314,0.657 -41.689,0.815 -46.932,0.237 z" />
  <path
     style="fill:#000000"
     inkscape:connector-curvature="0"
     id="path89663"
     d="m 7.015,783.51 c -6.104,-6.831 -8.265,-27.572 -6.325,-60.7 0.628,-10.725 1.123,-20.513 1.1,-21.75 -0.024,-1.254 0.561,-2.25 1.321,-2.25 0.996,0 1.511,2.218 1.911,8.25 0.302,4.537 1.013,11.175 1.581,14.75 0.567,3.575 1.275,10.1 1.571,14.5 0.297,4.4 1.009,11.6 1.582,16 0.573,4.4 1.304,11.428 1.626,15.619 l 0.585,7.619 3.629,1.272 c 2.449,0.859 12.405,1.416 30.629,1.714 14.85,0.242 27.361,0.787 27.803,1.211 0.441,0.424 -3.834,1.329 -9.5,2.012 -5.667,0.683 -11.428,1.418 -12.803,1.632 -1.375,0.215 -8.8,0.633 -16.5,0.929 -7.7,0.296 -16.755,0.73 -20.122,0.965 -5.351,0.374 -6.37,0.15 -8.088,-1.773 z" />
  <path
     style="fill:#000000"
     inkscape:connector-curvature="0"
     id="path89661"
     d="m 258.725,126.642 c -48.491,-1.187 -134.499,-3.935 -146.921,-4.695 -6.463,-0.395 -10.565,-1.075 -10.801,-1.79 -0.54,-1.638 10.979,-2.184 60.222,-2.853 23.1,-0.315 53.25,-0.892 67,-1.283 13.75,-0.391 50.163,-0.711 80.917,-0.711 43.845,0 56.007,0.27 56.333,1.25 0.229,0.687 1.265,1.25 2.302,1.25 1.213,0 1.692,0.503 1.343,1.412 -0.323,0.841 0.196,1.572 1.281,1.806 1.382,0.299 0.625,1.168 -3.122,3.588 l -4.946,3.194 -34.554,-0.162 c -19.005,-0.089 -50.079,-0.542 -69.054,-1.006 z" />
  <path
     style="fill:#000000"
     inkscape:connector-curvature="0"
     id="path89659"
     d="m 396.675,121.178 c -0.551,-1.448 -0.716,-3.529 -0.369,-4.625 0.356,-1.121 0.11,-2.316 -0.563,-2.732 -0.906,-0.56 -0.67,-3.252 0.974,-11.125 1.192,-5.713 2.422,-13.652 2.733,-17.643 l 0.565,-7.256 10.519,-10.494 c 5.785,-5.771 10.844,-10.493 11.24,-10.493 0.397,0 5.386,-2.813 11.086,-6.25 5.701,-3.438 12.615,-7.058 15.365,-8.046 6.904,-2.48 14.913,-4.624 15.411,-4.126 1.746,1.745 -17.103,18.689 -32.411,29.137 -14.197,9.689 -22.487,18.868 -22.496,24.909 -0.002,1.718 -0.718,5.093 -1.591,7.5 -0.872,2.407 -1.675,4.826 -1.784,5.376 -0.756,3.822 -6.198,18.5 -6.86,18.5 -0.45,0 -1.269,-1.185 -1.819,-2.632 z" />
  <path
     style="fill:#000000"
     inkscape:connector-curvature="0"
     id="path89646"
     d="m 778.374,112.81 c -0.432,-1.337 -1.073,-7.164 -2.142,-19.5 -0.191,-2.2 -0.644,-8.95 -1.007,-15 -0.676,-11.261 -3.222,-21.819 -6.308,-26.156 -0.931,-1.308 -4.52,-4.429 -7.977,-6.937 -3.457,-2.507 -7.4,-6.325 -8.763,-8.483 -1.362,-2.158 -2.922,-3.924 -3.465,-3.924 -0.543,0 -0.987,-0.9 -0.987,-2 0,-2.469 0.16,-2.469 5,0 2.156,1.1 4.458,2 5.116,2 0.657,0 2.588,1.041 4.29,2.315 1.701,1.273 5.922,4.015 9.377,6.092 3.456,2.078 7.619,4.901 9.25,6.274 l 2.967,2.496 v 22.805 c 0,17.039 -0.407,24.79 -1.61,30.661 -1.834,8.955 -2.96,11.771 -3.741,9.357 z" />
</svg>
